<?xml version="1.0" encoding="utf-8"?>
<!-- Generator: Adobe Illustrator 16.0.0, SVG Export Plug-In . SVG Version: 6.00 Build 0)  -->
<!DOCTYPE svg PUBLIC "-//W3C//DTD SVG 1.1//EN" "http://www.w3.org/Graphics/SVG/1.1/DTD/svg11.dtd">
<svg version="1.1" id="Layer_1" xmlns="http://www.w3.org/2000/svg" xmlns:xlink="http://www.w3.org/1999/xlink" x="0px" y="0px"
	 width="450.854px" height="262.998px" viewBox="0 0 450.854 262.998" enable-background="new 0 0 450.854 262.998"
	 xml:space="preserve">
<g>
	<path fill-rule="evenodd" clip-rule="evenodd" fill="#D70021" d="M227.768,132.081c-11.893,0-23.785,0.006-35.679-0.001
		c-8.093-0.005-13.12-6.08-11.669-14.07c1.64-9.03,7.409-14.816,15.12-18.946c8.925-4.781,18.708-6.203,28.635-6.53
		c10.93-0.36,21.778,0.447,32.064,4.629c8.951,3.639,16.146,9.166,18.938,18.968c1.926,6.765-0.32,12.284-5.898,14.993
		c-1.572,0.764-3.203,0.977-4.932,0.973C252.154,132.066,239.96,132.081,227.768,132.081z"/>
	<path fill-rule="evenodd" clip-rule="evenodd" fill="#D70021" d="M227.901,188.099c-11.484,0-22.971,0.036-34.455-0.013
		c-7.387-0.031-12.024-3.5-13.144-9.655c-1.083-5.956,2.549-10.354,8.533-10.353c15.18,0.006,30.359,0.045,45.539-0.043
		c2.33-0.014,4.224,0.441,5.968,2.05c1.83,1.687,3.938,3.067,5.827,4.692c1.667,1.434,3.19,1.395,4.165-0.529
		c4.527-8.936,12.654-6.365,19.873-6.079c3.316,0.132,5.824,4.964,5.531,9.192c-0.383,5.512-4.559,10.109-10.105,10.459
		c-10.867,0.683-21.758,0.144-32.64,0.275C231.296,188.116,229.598,188.099,227.901,188.099z"/>
	<path fill-rule="evenodd" clip-rule="evenodd" fill="#D70021" d="M228.086,134.885c13.298,0,26.596-0.018,39.894,0.009
		c4.293,0.009,7.053,2.138,7.58,5.704c0.676,4.578-2.377,8.007-7.35,8.068c-5.999,0.076-11.998,0.02-17.996,0.02
		c-20.696,0-41.394,0.01-62.089-0.008c-5.175-0.006-8.614-3.441-7.97-7.852c0.542-3.727,3.334-5.924,7.74-5.933
		C201.292,134.867,214.69,134.885,228.086,134.885z"/>
	<path fill-rule="evenodd" clip-rule="evenodd" fill="#D70021" d="M234.551,165.082c-12.377,0-23.848,0-35.318,0
		c-3.797,0-7.595,0.043-11.391-0.013c-4.682-0.067-7.751-2.906-7.66-6.981c0.089-3.958,3.152-6.771,7.595-6.793
		c9.193-0.047,18.386,0.002,27.579-0.035c1.164-0.004,2.092,0.287,3.002,1.016C223.493,156.377,228.665,160.436,234.551,165.082z"/>
	<path fill-rule="evenodd" clip-rule="evenodd" fill="#FEBA1B" d="M222.485,151.59c14.385,0,28.513,0,42.917,0
		c-0.659,1.781-1.912,2.795-2.9,3.973c-4.299,5.124-8.631,10.222-12.943,15.334c-0.721,0.853-1.248,1.723-2.605,0.63
		c-8.007-6.448-16.081-12.817-24.124-19.222C222.694,152.199,222.661,151.967,222.485,151.59z"/>
	<path fill-rule="evenodd" clip-rule="evenodd" d="M168.633,69.902c3.653,2.297,4.782,4.761,3.825,8.031
		c-0.956,3.263-3.273,4.819-7.328,4.842c-4.596,0.026-9.194-0.062-13.788,0.043c-1.59,0.038-2.007-0.435-1.987-2.002
		c0.083-6.894,0.083-13.789,0-20.682c-0.019-1.573,0.428-2.024,1.998-1.99c4.693,0.102,9.392-0.011,14.087,0.053
		c3.277,0.044,5.672,1.722,6.486,4.343C172.819,65.418,171.806,67.748,168.633,69.902z"/>
	<path fill-rule="evenodd" clip-rule="evenodd" d="M250.38,73.782c-0.826,0-1.637-0.112-2.404,0.021
		c-2.584,0.447-3.297-0.669-3.031-3.106c0.134-1.23,0.339-1.773,1.692-1.74c3.296,0.081,6.599,0.096,9.894-0.006
		c1.453-0.046,1.592,0.619,1.572,1.787c-0.055,3.298,0.027,6.598-0.055,9.894c-0.018,0.727,0.672,2.116-0.797,2.074
		c-1.184-0.034-2.915,1.048-3.524-1c-0.384-1.292-0.944-1.141-1.872-0.536c-3.412,2.228-7.234,2.221-11.002,1.533
		c-4.33-0.791-7.036-3.526-7.992-7.889c-0.606-2.771-0.683-5.541-0.024-8.315c0.73-3.075,2.374-5.596,5.222-6.939
		c5.059-2.388,10.24-2.241,15.326,0.059c0.801,0.361,1.556,0.944,2.164,1.583c1.516,1.59,3.016,3.402,2.08,5.71
		c-0.403,0.994-6.617-0.197-7.543-1.278c-1.648-1.927-3.775-2.016-6.025-1.505c-2.093,0.476-3.146,1.872-3.549,3.946
		c-1.229,6.353,2.133,10.392,7.335,8.714C249.207,76.349,250.449,75.709,250.38,73.782z"/>
	<path fill-rule="evenodd" clip-rule="evenodd" d="M300.097,82.562c-0.457,0.119-0.635,0.201-0.813,0.207
		c-7.657,0.243-7.677,0.25-10.976-6.595c-0.654-1.357-1.052-3.008-3.069-2.358c-1.839,0.592-0.513,2.213-0.848,3.316
		c-0.14,0.457-0.023,0.992-0.023,1.491c0,4.159-0.013,3.958-4.29,4.229c-2.852,0.18-3.691-0.546-3.568-3.5
		c0.266-6.379,0.125-12.778,0.049-19.168c-0.018-1.503,0.296-2.087,1.943-2.043c4.391,0.118,8.787-0.017,13.179,0.058
		c3.7,0.063,6.394,1.928,7.452,4.955c1.16,3.321,0.286,6.215-2.94,8.605c-1.124,0.833-1.087,1.335-0.454,2.367
		c0.828,1.354,1.471,2.821,2.197,4.238C298.644,79.748,299.359,81.128,300.097,82.562z"/>
	<path fill-rule="evenodd" clip-rule="evenodd" d="M229.803,82.619c-6.439,1.313-10.57-0.532-12.051-6.87
		c-0.321-1.37-1.121-2.305-2.766-1.965c-1.951,0.402-0.759,1.924-1.008,2.909c-0.189,0.752-0.158,1.612-0.017,2.386
		c0.592,3.224-0.837,3.979-3.849,3.769c-3.873-0.27-3.887-0.066-3.889-3.998c0-6.099,0.096-12.2-0.053-18.296
		c-0.048-2.039,0.623-2.476,2.508-2.414c4.094,0.134,8.197,0.008,12.295,0.051c3.959,0.042,6.695,1.81,7.779,4.921
		c1.194,3.427,0.316,6.254-3.133,8.767c-1.145,0.833-0.74,1.33-0.324,2.124C226.768,76.805,228.231,79.611,229.803,82.619z"/>
	<path fill-rule="evenodd" clip-rule="evenodd" d="M175.791,70.54c-0.007-8.349,4.491-12.673,13.12-12.615
		c8.46,0.057,13.003,4.416,13.031,12.5c0.027,8.194-4.635,12.645-13.214,12.615C180.229,83.01,175.799,78.729,175.791,70.54z"/>
	<path fill-rule="evenodd" clip-rule="evenodd" d="M270.941,70.462c0,3.486-0.055,6.972,0.027,10.456
		c0.029,1.354-0.255,1.854-1.773,1.913c-5.971,0.227-5.969,0.298-5.969-5.757c0-5.476,0.072-10.955-0.039-16.43
		c-0.039-1.848,0.319-2.556,2.385-2.521c5.367,0.093,5.369-0.023,5.369,5.469C270.941,65.882,270.941,68.173,270.941,70.462z"/>
	<path fill-rule="evenodd" clip-rule="evenodd" fill="#D70121" d="M258.116,164.993c3.769-4.472,7.187-8.458,10.517-12.519
		c1.018-1.239,2.053-0.914,3.174-0.408c2.766,1.246,4.26,4.229,3.742,7.404c-0.471,2.891-2.83,5.311-5.854,5.476
		C266.038,165.146,262.364,164.993,258.116,164.993z"/>
	<path fill-rule="evenodd" clip-rule="evenodd" fill="#DB1A38" d="M261.796,198.057c-1.275,1.998-2.544,4-3.832,5.991
		c-0.329,0.509-0.752,1.034-1.434,0.82c-0.701-0.22-0.66-0.902-0.66-1.501c0.001-2.589-0.004-5.179,0.008-7.768
		c0.002-0.602,0.045-1.318,0.859-1.258c0.83,0.059,0.68,0.832,0.686,1.392c0.021,1.79,0.008,3.58,0.482,5.642
		c1.291-2.006,2.574-4.018,3.872-6.02c0.375-0.58,0.745-1.279,1.599-1.055c0.962,0.254,0.635,1.119,0.643,1.752
		c0.035,2.488,0.016,4.978,0.01,7.467c-0.002,0.598,0.014,1.357-0.785,1.324c-0.745-0.031-0.771-0.77-0.771-1.383
		c0-1.76,0-3.518,0-5.275C262.247,198.143,262.021,198.1,261.796,198.057z"/>
	<path fill-rule="evenodd" clip-rule="evenodd" fill="#DB1B39" d="M240.818,197.822c-1.331,2.065-2.663,4.129-3.991,6.196
		c-0.341,0.528-0.756,1.015-1.436,0.854c-0.775-0.182-0.652-0.893-0.654-1.473c-0.008-2.596-0.012-5.193,0.006-7.79
		c0.004-0.571-0.078-1.351,0.799-1.28c0.779,0.063,0.747,0.805,0.751,1.396c0.011,1.771,0.005,3.543,0.529,5.516
		c1.269-1.953,2.542-3.906,3.807-5.861c0.381-0.592,0.729-1.297,1.59-1.07c0.951,0.25,0.66,1.113,0.67,1.757
		c0.033,2.297,0.04,4.594-0.002,6.891c-0.014,0.715,0.334,1.913-0.848,1.835c-1.121-0.074-0.658-1.26-0.688-1.975
		c-0.064-1.594-0.02-3.189-0.02-4.785C241.16,197.963,240.989,197.893,240.818,197.822z"/>
	<path fill-rule="evenodd" clip-rule="evenodd" fill="#DB1836" d="M299.608,194.689c-1.529,1.264-2.856,0.786-4.042,0.807
		c-1.143,0.021-1.562,0.375-1.565,1.549c-0.002,1.172,0.401,1.602,1.558,1.525c0.786-0.051,1.619-0.055,2.369,0.15
		c1.362,0.371,2.225,1.281,2.262,2.787c0.035,1.424-0.483,2.525-1.865,3.091c-1.535,0.627-3.146,0.372-4.729,0.356
		c-0.91-0.01-1.119-0.656-1.117-1.438c0.006-1.295-0.006-2.59-0.006-3.885C292.471,193.479,292.75,193.266,299.608,194.689z"/>
	<path fill-rule="evenodd" clip-rule="evenodd" fill="#DB1A38" d="M222.463,194.449c-4.995,3.66-3.584,7.016,0.938,10.384
		c-3.314,0.228-3.63-2.039-4.894-3.073c-0.645-0.527-0.938-1.831-2.039-1.339c-0.852,0.381-0.279,1.437-0.438,2.174
		c-0.171,0.788,0.503,2.191-0.769,2.19c-1.223,0-0.754-1.393-0.773-2.199c-0.058-2.293-0.023-4.588-0.012-6.883
		c0.004-0.592-0.023-1.347,0.762-1.383c0.828-0.037,0.766,0.725,0.789,1.311c0.014,0.299-0.041,0.607,0.017,0.896
		c0.144,0.712-0.474,1.808,0.587,2.048c0.881,0.2,1.175-0.907,1.742-1.421C219.464,196.164,219.795,194.236,222.463,194.449z"/>
	<path fill-rule="evenodd" clip-rule="evenodd" fill="#D90B2B" d="M59.508,194.65c-0.964,1.277-2.038,0.682-2.934,0.86
		c-0.992,0.198-2.461-0.696-2.524,1.454c-0.06,2.073,1.271,1.52,2.363,1.61c0.688,0.058,1.413,0.063,2.047,0.294
		c1.109,0.406,1.77,1.266,1.863,2.479c0.1,1.294-0.298,2.428-1.474,3.037c-1.764,0.914-3.82,0.979-5.519,0.336
		c-1.318-0.5-0.398-2.338-0.593-3.563c-0.077-0.486-0.012-0.995-0.012-1.494C52.726,193.478,52.979,193.281,59.508,194.65z"/>
	<path fill-rule="evenodd" clip-rule="evenodd" fill="#DB1836" d="M332.541,199.586c-0.006-0.4-0.006-0.8-0.006-1.199
		c0.002-4.457,0.52-4.883,4.946-4.115c1.673,0.291,2.705,1.148,2.832,2.936c0.139,1.912-0.736,3.243-2.582,3.393
		c-2.235,0.18-4.196,0.238-3.542,3.352c0.111,0.529-0.283,0.976-0.885,0.92c-0.605-0.057-0.758-0.553-0.76-1.09
		C332.541,202.383,332.542,200.984,332.541,199.586z"/>
	<path fill-rule="evenodd" clip-rule="evenodd" fill="#D90E2D" d="M152.922,199.436c0-0.398-0.065-0.811,0.012-1.194
		c0.257-1.292-0.718-3.58,0.603-3.702c1.824-0.166,0.52,1.997,0.918,3.064c0.734,1.968,2.366,0.746,3.563,1.016
		c0.971,0.22,1.803-0.02,1.659-1.359c-0.064-0.59-0.029-1.195,0.001-1.793c0.024-0.46-0.113-1.08,0.597-1.143
		c0.806-0.07,0.978,0.52,0.98,1.156c0.01,2.791,0.004,5.584-0.006,8.375c-0.001,0.559-0.273,0.989-0.851,1.018
		c-0.705,0.033-0.69-0.556-0.72-1.041c-0.023-0.398-0.058-0.805-0.001-1.195c0.276-1.938-0.246-2.779-2.495-2.784
		c-2.294-0.005-3.057,0.688-2.769,2.894c0.092,0.703,0.385,1.969-0.596,2.029c-1.417,0.088-0.795-1.291-0.868-2.052
		C152.843,201.637,152.922,200.532,152.922,199.436z"/>
	<path fill-rule="evenodd" clip-rule="evenodd" fill="#DA1533" d="M378.566,194.688c-1.303,1.143-2.42,0.797-3.414,0.817
		c-1.168,0.022-2.145-0.062-2.1,1.651c0.039,1.525,0.893,1.453,1.945,1.506c0.809,0.041,1.789-0.43,2.547,0.74
		c-0.793,0.836-1.824,0.579-2.695,0.526c-1.574-0.095-1.76,0.749-1.787,2.028c-0.031,1.402,0.664,1.596,1.836,1.654
		c1.098,0.055,2.398-0.58,3.547,0.973c-2.402,0.613-4.578,0.631-6.752,0.021c-0.385-0.108-0.408-9.885-0.012-10.008
		C373.814,193.929,375.955,194.028,378.566,194.688z"/>
	<path fill-rule="evenodd" clip-rule="evenodd" fill="#DA1331" d="M72.664,199.588c-0.002-0.398-0.002-0.799-0.002-1.197
		c0-4.345,0.917-5.07,5.148-4.061c1.66,0.396,2.588,1.424,2.602,3.158c0.015,1.755-0.913,2.956-2.603,3.091
		c-2.214,0.177-4.211,0.237-3.578,3.358c0.105,0.521-0.305,0.96-0.897,0.934c-0.697-0.029-0.656-0.623-0.662-1.1
		C72.654,202.377,72.666,200.982,72.664,199.588z"/>
	<path fill-rule="evenodd" clip-rule="evenodd" fill="#D90E2D" d="M194.469,199.334c0.002-1.289-0.019-2.58,0.014-3.869
		c0.012-0.441-0.131-1.073,0.602-1.117c0.707-0.043,0.816,0.557,0.729,1.01c-0.574,2.966,1.018,3.369,3.473,3.303
		c1.662-0.045,2.761,1.166,2.834,2.871c0.071,1.661-0.778,2.865-2.482,3.217c-0.863,0.179-1.773,0.117-2.652,0.229
		c-1.822,0.232-2.839-0.27-2.543-2.373C194.591,201.534,194.467,200.426,194.469,199.334z"/>
	<path fill-rule="evenodd" clip-rule="evenodd" fill="#DA102F" d="M96.574,202.17c-1.466-0.279-2.598-0.015-2.922,1.672
		c-0.122,0.629-0.541,1.24-1.207,1.015c-0.858-0.292-0.303-0.954-0.107-1.468c0.99-2.607,1.984-5.212,2.971-7.818
		c0.208-0.552,0.291-1.211,1.049-1.293c0.971-0.105,1.093,0.727,1.333,1.332c1.023,2.594,2.008,5.203,2.991,7.813
		c0.167,0.445,0.5,1.02-0.061,1.342c-0.774,0.447-1.132-0.285-1.25-0.797C99.008,202.393,98.103,201.801,96.574,202.17z"/>
	<path fill-rule="evenodd" clip-rule="evenodd" fill="#DA0F2E" d="M390.521,199.697c-0.002-0.496-0.004-0.992-0.002-1.488
		c0-4.369,0.115-4.459,4.449-3.982c1.932,0.212,3.188,1.123,3.275,3.152c0.088,2.061-1.143,3.277-3.051,3.279
		c-2.252,0.006-3.625,0.448-3.172,3.073c0.082,0.478-0.053,1.081-0.674,1.107c-0.867,0.036-0.803-0.706-0.814-1.272
		C390.503,202.277,390.525,200.986,390.521,199.697z"/>
	<path fill-rule="evenodd" clip-rule="evenodd" fill="#D90F2E" d="M141.066,205.168c-2.487-0.734-2.119-3.83-4.905-3.183
		c-1.549,0.36-2.541,0.601-2.9,2.188c-0.129,0.568-0.628,0.867-1.131,0.68c-0.67-0.248-0.304-0.795-0.138-1.236
		c1.05-2.792,2.079-5.593,3.165-8.37c0.398-1.021,1.319-1.646,1.883-0.384C138.462,198.045,139.6,201.354,141.066,205.168z"/>
	<path fill-rule="evenodd" clip-rule="evenodd" fill="#D90F2E" d="M316.361,200.188c0.885-2.135,1.529-3.664,2.15-5.203
		c0.279-0.691,0.794-0.934,1.403-0.599c0.63,0.347,0.142,0.892-0.021,1.284c-1.064,2.578-2.124,5.161-3.284,7.697
		c-0.577,1.258-1.505,2.115-3.47,1.314c3.543-1.683,2.072-3.827,0.897-5.982c-0.475-0.871-0.938-1.779-1.2-2.727
		c-0.137-0.497-1.287-1.191-0.037-1.656c0.927-0.346,1.162,0.564,1.444,1.153C314.916,196.867,315.519,198.297,316.361,200.188z"/>
	<path fill-rule="evenodd" clip-rule="evenodd" fill="#DB1634" d="M112.074,194.893c2.889-0.943,5.546-0.618,8.324-0.618
		c-0.162,0.581-0.219,0.92-0.26,0.919c-3.103-0.152-3.286,1.766-3.053,4.126c0.137,1.386,0.043,2.796,0.013,4.194
		c-0.012,0.546,0.181,1.334-0.7,1.357c-0.77,0.021-0.906-0.63-0.91-1.266c-0.007-1.301-0.039-2.6-0.003-3.898
		C115.548,197.368,116.107,194.729,112.074,194.893z"/>
	<path fill-rule="evenodd" clip-rule="evenodd" fill="#DA102F" d="M176.46,204.59c-2.36-1.578-3.392-4.744-2.348-7.775
		c0.65-1.887,2.151-2.523,4.157-2.623c1.347-0.066,2.019,0.59,2.739,1.377c0.468,0.512,1.567,1.033,0.517,1.873
		c-1.33,1.064-1.126-0.653-1.336-1.017c-0.853-1.476-2.138-0.651-3.206-0.776c-1.28-0.149-1.242,1.081-1.476,1.832
		c-0.23,0.737-0.245,1.582-0.179,2.363c0.118,1.406-0.418,3.26,1.393,3.85c1.553,0.504,3.192,0.275,3.89-1.667
		c0.161-0.45,0.543-0.653,0.926-0.507c0.615,0.234,0.479,0.82,0.286,1.254c-0.411,0.92-0.939,1.764-2.095,1.881
		C178.632,204.934,177.54,205.073,176.46,204.59z"/>
	<path fill-rule="evenodd" clip-rule="evenodd" fill="#D80928" d="M359.476,194.711c-0.598,0.434-0.803,0.706-1.033,0.729
		c-1.363,0.133-3.266-0.311-3.971,0.42c-1.037,1.075-0.232,3.026-0.381,4.594c-0.137,1.457,0.33,2.967-0.316,4.373
		c-1.188,0.071-1.016-0.781-1.031-1.424c-0.039-1.394-0.016-2.788-0.016-4.182C352.728,193.561,353.091,193.297,359.476,194.711z"/>
	<path fill-rule="evenodd" clip-rule="evenodd" fill="#D70021" d="M258.145,192.739c1.283-0.243,2.378-0.45,3.891-0.737
		C260.8,193.799,259.748,194.232,258.145,192.739z"/>
	<path fill-rule="evenodd" clip-rule="evenodd" fill="#DA1432" d="M176.46,204.59c1.089,0.021,2.178,0.043,3.267,0.064
		C178.625,205.308,177.534,205.375,176.46,204.59z"/>
	<path fill-rule="evenodd" clip-rule="evenodd" fill="#FCF0F2" d="M204.698,125.209c-1.535,0.344-1.867-0.537-1.744-1.467
		c0.314-2.385,2.574-1.414,3.901-2.004c1.194-0.528,1.581,0.954,1.405,1.579C207.743,125.156,205.735,124.58,204.698,125.209z"/>
	<path fill-rule="evenodd" clip-rule="evenodd" fill="#FCF4F5" d="M262.876,119.851c-1.477,0.228-1.129-0.684-1.203-1.291
		c-0.254-2.107,1.754-1.825,2.773-2.34c0.73-0.368,1.942,0.876,1.737,1.532C265.698,119.308,263.96,119.41,262.876,119.851z"/>
	<path fill-rule="evenodd" clip-rule="evenodd" fill="#FCF0F2" d="M221.581,103.792c-0.596,1.168-1.596,1.741-2.818,1.963
		c-1.231,0.221-0.886-0.791-0.975-1.376c-0.198-1.288,0.801-1.879,1.721-2.028C220.355,102.214,221.161,102.858,221.581,103.792z"/>
	<path fill-rule="evenodd" clip-rule="evenodd" fill="#FAE7E9" d="M228.951,123.682c-0.615-0.457-1.907-0.39-1.671-1.575
		c0.146-0.732,0.451-1.916,1.641-1.586c0.757,0.209,1.896,0.521,1.592,1.699C230.342,122.87,230.079,123.799,228.951,123.682z"/>
	<path fill-rule="evenodd" clip-rule="evenodd" fill="#F9DCE0" d="M194.889,108.917c-0.41,0.539-0.752,1.209-1.44,0.817
		c-0.634-0.362-1.599-0.648-1.497-1.58c0.059-0.531,0.643-1.074,1.336-0.754C193.979,107.718,194.625,108.162,194.889,108.917z"/>
	<path fill-rule="evenodd" clip-rule="evenodd" fill="#FBEBED" d="M237.016,111.723c-0.855-0.163-1.337-0.533-0.962-1.235
		c0.335-0.628,0.372-1.708,1.431-1.586c0.568,0.065,1.142,0.542,0.807,1.268C237.994,110.814,237.923,111.762,237.016,111.723z"/>
	<path fill-rule="evenodd" clip-rule="evenodd" fill="#F8D6DB" d="M242.096,100.875c-0.914,0.082-0.883-0.588-0.839-1.151
		c0.047-0.599-0.348-1.502,0.66-1.628c0.725-0.09,0.949,0.532,0.951,1.162C242.873,99.91,243.048,100.67,242.096,100.875z"/>
	<path fill-rule="evenodd" clip-rule="evenodd" fill="#FCF2F3" d="M256.429,181.507c-0.643,0.769-1.322,1.925-2.111,1.401
		c-1.049-0.692-2.715-1.173-2.699-2.773c0.006-0.6,0.455-2.02,1.607-1.555C254.58,179.129,255.689,180.171,256.429,181.507z"/>
	<path fill-rule="evenodd" clip-rule="evenodd" fill="#F9E0E3" d="M192.042,176.936c-0.954-0.111-1.09-0.979-1.307-1.646
		c-0.321-0.992,0.5-1.504,1.211-1.51c0.732-0.008,1.67,0.504,1.773,1.279C193.85,176.059,192.8,176.418,192.042,176.936z"/>
	<path fill-rule="evenodd" clip-rule="evenodd" fill="#FAE6E9" d="M265.334,172.561c-0.51,0.689-0.671,1.805-1.535,1.699
		c-0.688-0.085-1.901-0.404-1.573-1.605c0.184-0.672,0.478-1.726,1.479-1.508C264.367,171.291,265.183,171.679,265.334,172.561z"/>
	<path fill-rule="evenodd" clip-rule="evenodd" fill="#FBEAED" d="M207.452,183.666c0.215-0.861,0.5-1.77,1.331-1.871
		c0.733-0.09,1.7,0.354,1.748,1.236c0.041,0.761-0.489,1.681-1.29,1.798C208.525,184.934,207.752,184.461,207.452,183.666z"/>
	<path fill-rule="evenodd" clip-rule="evenodd" fill="#FCFCFC" d="M159.778,77.384c-1.058,0.058-3.011,0.615-2.705-2.582
		c0.17-1.782,0.49-2.514,2.33-2.246c0.871,0.128,1.781,0.075,2.666,0.011c1.679-0.121,2.692,0.545,2.742,2.287
		c0.054,1.873-0.929,2.696-2.784,2.536C161.535,77.349,161.038,77.384,159.778,77.384z"/>
	<path fill-rule="evenodd" clip-rule="evenodd" fill="#FCFCFC" d="M159.967,67.784c-2.217,0.579-3.127-0.396-2.847-2.923
		c0.122-1.097,0.512-1.339,1.465-1.291c0.996,0.05,2.001,0.077,2.992-0.005c1.556-0.131,2.698,0.507,2.721,2.033
		c0.026,1.701-1.183,2.379-2.854,2.193C161.049,67.746,160.646,67.784,159.967,67.784z"/>
	<path fill-rule="evenodd" clip-rule="evenodd" fill="#FCFCFC" d="M286.874,68.382c-1.493,0.23-2.529,0.104-2.626-2.307
		c-0.109-2.696,1.207-2.627,3.014-2.503c0.692,0.048,1.394-0.018,2.087,0.022c1.433,0.082,2.184,0.947,2.215,2.3
		c0.036,1.507-0.759,2.417-2.337,2.483C288.532,68.406,287.834,68.382,286.874,68.382z"/>
	<path fill-rule="evenodd" clip-rule="evenodd" fill="#F8F8F8" d="M216.731,63.588c2.177-0.017,4.482-0.436,4.441,2.438
		c-0.043,2.877-2.396,2.297-4.232,2.368c-1.748,0.068-3.141,0.27-3.127-2.458C213.825,63.12,215.336,63.496,216.731,63.588z"/>
	<path fill-rule="evenodd" clip-rule="evenodd" fill="#FEFEFE" d="M194,70.189c-0.003,4.459-1.198,6.296-4.233,6.807
		c-3.297,0.555-5.726-1.258-6.044-4.581c-0.104-1.089-0.077-2.197-0.028-3.293c0.145-3.292,1.907-5.165,4.91-5.276
		c3.117-0.116,5.064,1.76,5.339,5.152C193.985,69.495,193.991,69.995,194,70.189z"/>
	<path fill-rule="evenodd" clip-rule="evenodd" fill="#FDF7F8" d="M295.926,203.579c-1.313,0.234-2.016-0.228-1.946-1.884
		c0.053-1.286,0.196-2.021,1.758-1.93c1.488,0.088,2.943,0.119,2.915,2.051C298.629,203.387,297.362,203.594,295.926,203.579z"/>
	<path fill-rule="evenodd" clip-rule="evenodd" fill="#FDFAFB" d="M55.723,199.812c1.629-0.093,2.996,0.032,3.102,1.767
		c0.108,1.762-1.213,1.988-2.615,2.036c-1.308,0.044-2.328,0.026-2.161-1.825C54.169,200.445,54.094,199.275,55.723,199.812z"/>
	<path fill-rule="evenodd" clip-rule="evenodd" fill="#FDF7F8" d="M336.162,199.369c-1.407,0.264-2.055-0.277-1.979-1.908
		c0.059-1.259,0.145-2.051,1.74-1.98c1.542,0.068,2.934,0.221,2.911,2.107C338.814,199.139,337.586,199.43,336.162,199.369z"/>
	<path fill-rule="evenodd" clip-rule="evenodd" fill="#FEFCFC" d="M75.949,199.383c-1.637,0.291-1.634-0.842-1.699-2.15
		c-0.078-1.553,0.681-1.777,1.966-1.736c1.419,0.047,2.639,0.252,2.614,2.018C78.804,199.34,77.453,199.393,75.949,199.383z"/>
	<path fill-rule="evenodd" clip-rule="evenodd" fill="#FDF5F6" d="M197.51,203.62c-1.514,0.261-1.652-0.75-1.719-2.153
		c-0.096-1.982,1.174-1.664,2.348-1.682c1.362-0.021,2.434,0.354,2.394,1.957C200.486,203.611,199.075,203.585,197.51,203.62z"/>
	<path fill-rule="evenodd" clip-rule="evenodd" fill="#FCEEF0" d="M98.221,200.86c-1.208,0-2.174,0-3.434,0
		c0.52-1.5,0.992-2.856,1.528-4.401C97.413,197.825,97.562,199.336,98.221,200.86z"/>
	<path fill-rule="evenodd" clip-rule="evenodd" fill="#FDF6F7" d="M393.714,199.439c-0.869,0.103-1.764-0.126-1.725-1.869
		c0.031-1.436,0.277-2.218,1.938-2.095c1.348,0.099,2.66,0.088,2.787,1.854C396.845,199.135,395.591,199.379,393.714,199.439z"/>
	<path fill-rule="evenodd" clip-rule="evenodd" fill="#FBEDF0" d="M137.886,200.916c-1.253,0-2.125,0-3.345,0
		c0.493-1.447,0.932-2.738,1.472-4.322C137.205,197.961,137.438,199.389,137.886,200.916z"/>
</g>
</svg>
