<?xml version="1.0" encoding="utf-8"?>
<!-- Generator: Adobe Illustrator 16.0.0, SVG Export Plug-In . SVG Version: 6.00 Build 0)  -->
<!DOCTYPE svg PUBLIC "-//W3C//DTD SVG 1.1//EN" "http://www.w3.org/Graphics/SVG/1.1/DTD/svg11.dtd">
<svg version="1.1" id="Layer_1" xmlns="http://www.w3.org/2000/svg" xmlns:xlink="http://www.w3.org/1999/xlink" x="0px" y="0px"
	 width="452.333px" height="195.333px" viewBox="0 0 452.333 195.333" enable-background="new 0 0 452.333 195.333"
	 xml:space="preserve">
<path fill="#FEBA1B" d="M221.357,121.952c18.712,0,37.087,0,55.819,0c-0.855,2.316-2.484,3.635-3.77,5.168
	c-5.594,6.666-11.229,13.295-16.834,19.948c-0.939,1.106-1.623,2.24-3.391,0.815c-10.414-8.385-20.916-16.67-31.378-25.002
	C221.629,122.743,221.587,122.441,221.357,121.952z"/>
<g>
	<path fill="#DB1634" d="M265.26,51.16c-13.379-5.44-27.487-6.49-41.704-6.021c-12.912,0.425-25.637,2.275-37.245,8.493
		c-10.03,5.371-17.534,12.897-19.667,24.642c-1.886,10.393,4.652,18.295,15.178,18.301c15.47,0.009,30.938,0.001,46.407,0.001
		c15.857,0,31.717-0.021,47.577,0.021c2.252,0.005,4.373-0.271,6.414-1.265c7.256-3.523,10.176-10.702,7.672-19.501
		C286.26,63.082,276.904,55.893,265.26,51.16z M183.591,67.51c-0.825-0.47-2.08-0.843-1.947-2.055
		c0.077-0.69,0.836-1.396,1.738-0.98c0.898,0.413,1.739,0.99,2.082,1.972C184.93,67.148,184.486,68.02,183.591,67.51z
		 M202.855,85.177c-0.672,2.391-3.284,1.642-4.632,2.461c-1.997,0.448-2.429-0.699-2.269-1.908c0.408-3.102,3.348-1.839,5.074-2.607
		C202.581,82.436,203.085,84.364,202.855,85.177z M216.517,62.334c-1.601,0.288-1.153-1.029-1.268-1.79
		c-0.258-1.675,1.042-2.444,2.238-2.638c1.1-0.177,2.149,0.66,2.695,1.875C219.407,61.301,218.106,62.046,216.517,62.334z
		 M231.799,83.749c-0.223,0.846-0.564,2.054-2.03,1.902c-0.802-0.594-2.481-0.507-2.174-2.049c0.188-0.952,0.588-2.492,2.135-2.063
		C230.713,81.811,232.198,82.217,231.799,83.749z M241.917,68.077c-0.387,0.837-0.479,2.07-1.658,2.02
		c-1.111-0.212-1.738-0.693-1.252-1.606c0.438-0.817,0.484-2.222,1.861-2.063C241.606,66.512,242.352,67.133,241.917,68.077z
		 M246.866,55.987c-1.189,0.107-1.148-0.765-1.092-1.497c0.061-0.779-0.453-1.953,0.857-2.117c0.943-0.118,1.236,0.691,1.238,1.511
		C247.875,54.732,248.104,55.72,246.866,55.987z M278.195,77.938c-0.632,2.024-2.891,2.157-4.301,2.73
		c-1.922,0.297-1.47-0.89-1.565-1.679c-0.33-2.74,2.28-2.374,3.606-3.043C276.885,75.467,278.459,77.085,278.195,77.938z"/>
	<path fill="#DB1634" d="M283.429,143.518c-9.392-0.375-19.962-3.717-25.849,7.904c-1.271,2.502-3.25,2.552-5.418,0.688
		c-2.457-2.113-5.199-3.908-7.58-6.104c-2.267-2.092-4.73-2.685-7.763-2.666c-19.744,0.115-39.487,0.063-59.231,0.056
		c-7.783,0-12.507,5.724-11.099,13.467c1.457,8.005,7.488,12.521,17.096,12.558c14.937,0.066,29.878,0.019,44.816,0.019
		c2.207,0,4.414,0.022,6.623-0.004c14.151-0.17,28.32,0.53,42.453-0.358c7.213-0.455,12.644-6.435,13.142-13.604
		C291.004,149.973,287.741,143.69,283.429,143.518z M181.761,154.92c-1.241-0.146-1.417-1.274-1.7-2.142
		c-0.417-1.291,0.65-1.957,1.575-1.965c0.953-0.01,2.173,0.656,2.306,1.664C184.113,153.78,182.747,154.245,181.761,154.92z
		 M204.131,165.186c-0.931,0.137-1.936-0.48-2.326-1.514c0.279-1.118,0.65-2.303,1.731-2.435c0.953-0.116,2.21,0.461,2.273,1.607
		C205.862,163.836,205.173,165.034,204.131,165.186z M262.76,162.686c-1.362-0.898-3.528-1.523-3.508-3.604
		c0.006-0.783,0.593-2.629,2.088-2.025c1.763,0.715,3.205,2.07,4.166,3.809C264.672,161.866,263.788,163.37,262.76,162.686z
		 M275.095,151.44c-0.896-0.111-2.476-0.525-2.048-2.088c0.24-0.873,0.621-2.246,1.925-1.961c0.86,0.186,1.922,0.691,2.118,1.84
		C276.429,150.125,276.217,151.579,275.095,151.44z"/>
	<path fill="#DB1634" d="M280.532,100.234c-17.294-0.034-34.593-0.011-51.888-0.011c-17.425,0-34.852-0.023-52.277,0.01
		c-5.731,0.012-9.362,2.868-10.067,7.717c-0.838,5.737,3.636,10.204,10.367,10.215c26.917,0.022,53.839,0.01,80.757,0.01
		c7.802,0,15.604,0.072,23.406-0.026c6.467-0.08,10.438-4.539,9.56-10.492C289.708,103.016,286.116,100.247,280.532,100.234z"/>
	<path fill="#DB1634" d="M176.213,121.566c-5.778,0.029-9.762,3.688-9.878,8.837c-0.119,5.303,3.874,8.994,9.963,9.082
		c4.938,0.073,9.878,0.016,14.816,0.016c14.919,0,29.839,0,45.938,0c-7.654-6.041-14.381-11.322-21.06-16.657
		c-1.184-0.948-2.391-1.327-3.905-1.321C200.128,121.568,188.171,121.504,176.213,121.566z"/>
	<path fill="#FEBA1B" d="M151.313,15.701c4.128-2.802,5.445-5.832,4.282-9.576c-1.059-3.409-4.174-5.591-8.436-5.649
		c-6.106-0.084-12.218,0.064-18.322-0.069c-2.042-0.044-2.624,0.543-2.599,2.589c0.108,8.965,0.108,17.933,0,26.9
		c-0.026,2.038,0.516,2.653,2.584,2.604c5.976-0.137,11.956-0.022,17.934-0.056c5.275-0.029,8.288-2.053,9.532-6.297
		C157.533,21.894,156.064,18.689,151.313,15.701z M136.339,9.144c0.159-1.426,0.666-1.741,1.905-1.679
		c1.296,0.065,2.603,0.101,3.892-0.006c2.023-0.17,3.509,0.659,3.539,2.645c0.034,2.212-1.538,3.094-3.712,2.852
		c-0.514-0.059-1.038-0.01-1.921-0.01C137.159,13.699,135.975,12.431,136.339,9.144z M142.721,25.441
		c-0.639-0.054-1.286-0.008-2.925-0.008c-1.376,0.075-3.916,0.8-3.518-3.358c0.221-2.318,0.637-3.27,3.03-2.921
		c1.133,0.167,2.317,0.097,3.468,0.014c2.184-0.157,3.501,0.709,3.566,2.975C146.413,24.579,145.134,25.649,142.721,25.441z"/>
	<path fill="#FEBA1B" d="M245.249,32.351c4.901,0.895,9.871,0.904,14.311-1.994c1.209-0.787,1.938-0.983,2.438,0.697
		c0.791,2.664,3.043,1.257,4.582,1.301c1.909,0.054,1.014-1.753,1.037-2.698c0.104-4.287,0-8.579,0.069-12.869
		c0.026-1.519-0.153-2.385-2.043-2.324c-4.287,0.132-8.584,0.112-12.869,0.007c-1.76-0.043-2.026,0.663-2.2,2.263
		c-0.347,3.17,0.579,4.622,3.94,4.041c0.997-0.173,2.053-0.028,3.127-0.028c0.089,2.507-1.526,3.34-3.296,3.912
		c-6.764,2.183-11.137-3.07-9.538-11.333c0.522-2.698,1.892-4.514,4.616-5.133c2.927-0.665,5.69-0.549,7.836,1.957
		c1.207,1.407,9.287,2.955,9.812,1.663c1.218-3.002-0.731-5.359-2.704-7.427c-0.793-0.831-1.773-1.589-2.816-2.059
		c-6.615-2.992-13.354-3.183-19.932-0.077c-3.705,1.746-5.845,5.025-6.793,9.025c-0.859,3.608-0.759,7.211,0.028,10.815
		C236.099,27.765,239.616,31.322,245.249,32.351z"/>
	<path fill="#FEBA1B" d="M321.247,32.437c0.231-0.008,0.463-0.115,1.059-0.27c-0.963-1.865-1.893-3.659-2.813-5.46
		c-0.943-1.843-1.779-3.751-2.856-5.512c-0.822-1.342-0.871-1.996,0.59-3.079c4.196-3.108,5.334-6.872,3.825-11.192
		c-1.377-3.937-4.881-6.362-9.694-6.445c-5.709-0.097-11.428,0.078-17.14-0.075c-2.145-0.057-2.551,0.702-2.526,2.657
		c0.099,8.311,0.282,16.635-0.063,24.932c-0.16,3.842,0.931,4.785,4.642,4.552c5.562-0.352,5.58-0.091,5.58-5.5
		c0-0.649-0.153-1.345,0.028-1.94c0.437-1.435-1.289-3.543,1.104-4.313c2.623-0.846,3.139,1.301,3.989,3.066
		C311.26,32.762,311.288,32.753,321.247,32.437z M308.167,13.717c-0.902,0.038-1.813,0.007-3.063,0.007
		c-1.939,0.299-3.289,0.135-3.414-3c-0.141-3.507,1.57-3.417,3.92-3.256c0.9,0.063,1.814-0.023,2.713,0.029
		c1.865,0.107,2.844,1.231,2.881,2.991C311.252,12.448,310.22,13.632,308.167,13.717z"/>
	<path fill="#FEBA1B" d="M200.206,27.339c0.002,5.114,0.021,4.848,5.058,5.2c3.918,0.273,5.776-0.709,5.006-4.902
		c-0.184-1.007-0.224-2.126,0.022-3.104c0.324-1.281-1.226-3.26,1.311-3.783c2.14-0.443,3.181,0.774,3.598,2.556
		c1.926,8.244,7.3,10.644,15.674,8.936c-2.043-3.913-3.946-7.562-5.862-11.208c-0.541-1.033-1.068-1.68,0.422-2.763
		c4.483-3.268,5.629-6.945,4.073-11.403c-1.409-4.046-4.968-6.345-10.117-6.4c-5.33-0.056-10.667,0.108-15.992-0.066
		c-2.451-0.08-3.324,0.488-3.262,3.14C200.331,11.47,200.206,19.406,200.206,27.339z M213.874,7.488
		c2.832-0.022,5.83-0.567,5.776,3.171c-0.056,3.742-3.116,2.987-5.504,3.08c-2.273,0.088-4.085,0.351-4.067-3.197
		C210.094,6.88,212.059,7.369,213.874,7.488z"/>
	<path fill="#FEBA1B" d="M177.451,32.79c11.159,0.038,17.222-5.751,17.187-16.409c-0.036-10.514-5.946-16.184-16.949-16.258
		c-11.224-0.075-17.074,5.549-17.065,16.408C160.634,27.182,166.396,32.75,177.451,32.79z M170.905,14.687
		c0.188-4.282,2.48-6.718,6.386-6.862c4.055-0.151,6.586,2.289,6.944,6.701c0.053,0.646,0.061,1.296,0.073,1.548
		c-0.004,5.8-1.559,8.189-5.505,8.854c-4.288,0.721-7.448-1.637-7.861-5.958C170.807,17.553,170.842,16.113,170.905,14.687z"/>
	<path fill="#FEBA1B" d="M274.348,25.029c0,7.875-0.004,7.783,7.762,7.488c1.977-0.076,2.346-0.727,2.307-2.488
		c-0.105-4.531-0.035-9.066-0.035-13.6c0-2.977,0-5.957,0-8.937c0-7.143-0.002-6.992-6.979-7.113
		c-2.688-0.045-3.155,0.876-3.104,3.279C274.442,10.78,274.348,17.906,274.348,25.029z"/>
	<path fill="#DB1634" d="M285.508,122.569c-1.457-0.658-2.805-1.08-4.127,0.531c-4.332,5.283-8.777,10.47-13.68,16.288
		c5.525,0,10.303,0.196,15.059-0.063c3.936-0.215,7.005-3.363,7.615-7.123C291.049,128.071,289.107,124.19,285.508,122.569z"/>
	<path fill="#DB1634" d="M274.545,177.504c-1.111-0.291-1.594,0.617-2.082,1.373c-1.687,2.604-3.354,5.222-5.033,7.828
		c-0.617-2.681-0.6-5.011-0.627-7.336c-0.008-0.729,0.188-1.734-0.893-1.812c-1.06-0.08-1.115,0.854-1.117,1.635
		c-0.018,3.37-0.01,6.739-0.012,10.104c0,0.779-0.055,1.666,0.857,1.953c0.886,0.277,1.438-0.403,1.863-1.065
		c1.677-2.588,3.324-5.192,4.982-7.791c0.293,0.054,0.588,0.11,0.885,0.164c0,2.287,0,4.573,0,6.86c0,0.8,0.032,1.761,1.004,1.8
		c1.039,0.043,1.017-0.946,1.019-1.724c0.009-3.236,0.032-6.476-0.013-9.711C275.37,178.961,275.797,177.834,274.545,177.504z"/>
	<path fill="#DB1634" d="M247.898,179.803c-0.015-0.838,0.365-1.961-0.873-2.285c-1.118-0.295-1.571,0.622-2.065,1.393
		c-1.646,2.543-3.303,5.082-4.953,7.623c-0.682-2.565-0.674-4.873-0.688-7.174c-0.004-0.77,0.037-1.736-0.979-1.816
		c-1.141-0.094-1.031,0.922-1.039,1.664c-0.022,3.379-0.018,6.758-0.008,10.133c0.002,0.756-0.154,1.682,0.854,1.916
		c0.887,0.207,1.422-0.422,1.867-1.109c1.727-2.689,3.459-5.373,5.188-8.063c0.225,0.098,0.445,0.186,0.67,0.275
		c0,2.077-0.058,4.151,0.024,6.225c0.039,0.931-0.563,2.474,0.896,2.566c1.539,0.104,1.084-1.455,1.104-2.385
		C247.95,185.78,247.941,182.792,247.898,179.803z"/>
	<path fill="#DB1634" d="M319.483,183.254c-0.975-0.268-2.061-0.26-3.08-0.194c-1.507,0.103-2.031-0.461-2.027-1.983
		c0.004-1.529,0.549-1.988,2.033-2.017c0.816-0.015,1.686,0.146,2.614,0.063h-0.565l3.211-1.112l-6.135-0.938
		c-2.975,0.03-3.146,1.885-3.145,7.365c0,1.684,0.014,3.371,0.006,5.055c-0.002,1.016,0.27,1.857,1.453,1.869
		c2.059,0.021,4.154,0.354,6.15-0.461c1.799-0.736,2.473-2.169,2.426-4.021C322.377,184.92,321.254,183.737,319.483,183.254z
		 M316.879,189.575c-1.709,0.305-2.621-0.297-2.532-2.451c0.071-1.672,0.258-2.631,2.286-2.51c1.937,0.113,3.828,0.154,3.793,2.666
		C320.396,189.325,318.747,189.595,316.879,189.575z"/>
	<path fill="#DB1634" d="M221.329,177.698c-3.471-0.277-3.901,2.231-5.32,3.521c-0.737,0.668-1.12,2.107-2.266,1.848
		c-1.38-0.313-0.576-1.734-0.763-2.664c-0.075-0.375-0.003-0.773-0.022-1.166c-0.029-0.762,0.051-1.752-1.026-1.705
		c-1.021,0.051-0.986,1.029-0.991,1.801c-0.015,2.982-0.06,5.971,0.015,8.953c0.025,1.047-0.585,2.857,1.005,2.857
		c1.655,0.004,0.778-1.825,1-2.85c0.207-0.957-0.538-2.332,0.57-2.825c1.432-0.642,1.813,1.057,2.652,1.741
		c1.645,1.346,2.055,4.293,6.366,3.996C216.667,186.823,214.832,182.459,221.329,177.698z"/>
	<path fill="#DB1634" d="M8.015,183.45c-0.825-0.302-1.768-0.31-2.663-0.386c-1.421-0.117-3.152,0.601-3.074-2.094
		c0.082-2.798,1.993-1.634,3.284-1.89c0.656-0.133,1.386,0.057,2.122-0.052H5.427l3.95-1.069l-5.913-0.89
		c-2.749,0.086-2.908,1.954-2.908,7.412c0,0.647-0.084,1.312,0.016,1.942c0.253,1.593-0.943,3.982,0.771,4.634
		c2.209,0.835,4.884,0.752,7.178-0.437c1.529-0.793,2.047-2.268,1.917-3.951C10.317,185.094,9.457,183.976,8.015,183.45z
		 M5.087,189.62c-1.701,0.061-3.028,0.035-2.811-2.373c0.157-1.75,0.059-3.271,2.178-2.572c2.119-0.117,3.896,0.045,4.035,2.301
		C8.629,189.265,6.911,189.56,5.087,189.62z"/>
	<path fill="#DB1634" d="M370.929,177.469c-5.757-1-6.431-0.445-6.433,5.354c0,0.518,0,1.039,0.008,1.557
		c0,1.818,0,3.639,0.004,5.457c0.002,0.699,0.203,1.346,0.988,1.418c0.784,0.074,1.295-0.508,1.149-1.195
		c-0.849-4.048,1.703-4.125,4.608-4.359c2.4-0.193,3.539-1.926,3.356-4.41C374.45,178.961,373.105,177.848,370.929,177.469z
		 M369.213,184.099c-1.83,0.342-2.674-0.361-2.575-2.481c0.079-1.638,0.19-2.668,2.264-2.574c2.009,0.086,3.815,0.287,3.789,2.737
		C372.661,183.799,371.067,184.179,369.213,184.099z"/>
	<path fill="#DB1634" d="M140.441,177.538c-0.923,0.082-0.745,0.887-0.776,1.486c-0.039,0.777-0.084,1.564-0.001,2.332
		c0.187,1.743-0.895,2.053-2.158,1.768c-1.557-0.349-3.679,1.239-4.634-1.318c-0.518-1.389,1.178-4.201-1.194-3.986
		c-1.719,0.158-0.45,3.135-0.784,4.813c-0.1,0.498-0.016,1.037-0.016,1.557c0,1.425-0.103,2.861,0.035,4.275
		c0.094,0.988-0.715,2.783,1.128,2.668c1.275-0.076,0.895-1.725,0.775-2.639c-0.374-2.869,0.619-3.771,3.602-3.764
		c2.925,0.006,3.604,1.102,3.245,3.621c-0.074,0.508-0.029,1.037,0.001,1.555c0.04,0.629,0.02,1.397,0.937,1.354
		c0.752-0.036,1.106-0.596,1.107-1.323c0.012-3.629,0.021-7.263,0.007-10.894C141.713,178.213,141.489,177.446,140.441,177.538z"/>
	<path fill="#DB1634" d="M419.924,179.075c1.293-0.027,2.746,0.422,4.441-1.063c-3.395-0.86-6.182-0.989-8.953-0.119
		c-0.515,0.161-0.484,12.875,0.016,13.02c2.83,0.791,5.66,0.77,8.781-0.029c-1.492-2.021-3.182-1.194-4.613-1.264
		c-1.523-0.076-2.426-0.328-2.387-2.152c0.035-1.664,0.273-2.762,2.324-2.637c1.133,0.066,2.475,0.398,3.506-0.688
		c-0.988-1.521-2.264-0.91-3.313-0.963c-1.369-0.068-2.479,0.023-2.531-1.959C417.135,178.993,418.407,179.101,419.924,179.075z"/>
	<path fill="#DB1634" d="M33.183,177.543c-5.503-1.312-6.696-0.369-6.696,5.283c0,0.517,0,1.038,0.002,1.555
		c0.003,1.813-0.013,3.63,0.011,5.439c0.008,0.621-0.045,1.395,0.861,1.434c0.77,0.035,1.304-0.537,1.167-1.215
		c-0.823-4.062,1.774-4.14,4.654-4.367c2.197-0.176,3.405-1.738,3.385-4.021C36.549,179.396,35.343,178.06,33.183,177.543z
		 M30.762,184.116c-2.129,0.377-2.125-1.096-2.21-2.795c-0.102-2.02,0.886-2.313,2.557-2.258c1.846,0.061,3.433,0.326,3.4,2.623
		C34.475,184.06,32.718,184.129,30.762,184.116z"/>
	<path fill="#DB1634" d="M191.185,183.18c-3.194,0.086-5.264-0.44-4.518-4.297c0.114-0.59-0.028-1.37-0.948-1.313
		c-0.953,0.054-0.767,0.879-0.783,1.449c-0.043,1.678-0.016,3.356-0.019,5.033c-0.002,1.42,0.159,2.862-0.032,4.257
		c-0.385,2.736,0.938,3.389,3.308,3.086c1.144-0.145,2.327-0.063,3.45-0.297c2.216-0.457,3.32-2.026,3.228-4.184
		C194.776,184.696,193.347,183.122,191.185,183.18z M188.873,189.627c-1.969,0.338-2.149-0.976-2.236-2.803
		c-0.125-2.574,1.527-2.16,3.054-2.187c1.771-0.025,3.166,0.461,3.114,2.545C192.744,189.616,190.909,189.583,188.873,189.627z"/>
	<path fill="#DB1634" d="M59.041,179.209c-0.312-0.787-0.471-1.869-1.734-1.732c-0.986,0.107-1.093,0.963-1.364,1.682
		c-1.284,3.389-2.577,6.777-3.865,10.17c-0.255,0.668-0.977,1.529,0.139,1.906c0.866,0.293,1.411-0.5,1.57-1.32
		c0.422-2.19,1.894-2.535,3.801-2.174c1.989-0.479,3.166,0.291,3.638,2.34c0.153,0.664,0.619,1.616,1.626,1.034
		c0.73-0.418,0.297-1.165,0.08-1.743C61.653,185.977,60.371,182.583,59.041,179.209z M55.263,186.038
		c0.677-1.951,1.29-3.717,1.987-5.725c1.43,1.777,1.623,3.741,2.48,5.725C58.159,186.038,56.902,186.038,55.263,186.038z"/>
	<path fill="#DB1634" d="M445.7,177.411c-5.637-0.623-5.787-0.507-5.787,5.178c-0.002,0.646,0,1.291,0.002,1.937
		c0.006,1.677-0.02,3.354,0.016,5.034c0.018,0.734-0.066,1.701,1.063,1.65c0.807-0.03,0.98-0.815,0.875-1.438
		c-0.588-3.414,1.197-3.99,4.127-3.998c2.479-0.002,4.082-1.582,3.967-4.266C449.846,178.872,448.211,177.685,445.7,177.411z
		 M444.069,184.188c-1.131,0.135-2.293-0.162-2.242-2.43c0.039-1.867,0.359-2.885,2.52-2.725c1.752,0.127,3.459,0.113,3.625,2.41
		C448.141,183.795,446.51,184.11,444.069,184.188z"/>
	<path fill="#DB1634" d="M107.774,178.738c-1.413,3.614-2.752,7.257-4.117,10.886c-0.216,0.573-0.693,1.287,0.179,1.608
		c0.654,0.244,1.303-0.146,1.471-0.885c0.467-2.065,1.757-2.377,3.772-2.847c3.623-0.84,3.145,3.187,6.379,4.14
		c-1.907-4.959-3.387-9.265-5.235-13.402C109.489,176.597,108.292,177.411,107.774,178.738z M106.971,186.11
		c0.642-1.881,1.212-3.561,1.915-5.619c1.55,1.776,1.853,3.635,2.436,5.619C109.692,186.11,108.558,186.11,106.971,186.11z"/>
	<path fill="#DB1634" d="M348.081,177.616c-0.793-0.436-1.463-0.119-1.826,0.781c-0.809,2.002-1.645,3.991-2.797,6.768
		c-1.096-2.463-1.877-4.32-2.754-6.138c-0.365-0.767-0.674-1.95-1.877-1.5c-1.627,0.603-0.131,1.509,0.047,2.154
		c0.342,1.231,0.944,2.411,1.563,3.545c1.527,2.804,3.439,5.592-1.166,7.78c2.557,1.043,3.762-0.071,4.512-1.709
		c1.51-3.297,2.889-6.657,4.273-10.012C348.265,178.778,348.899,178.069,348.081,177.616z"/>
	<path fill="#DB1634" d="M83.02,177.424l-5.271,0.854c5.245-0.215,4.518,3.219,4.435,6.26c-0.046,1.688-0.005,3.377,0.004,5.07
		c0.006,0.828,0.183,1.673,1.184,1.646c1.146-0.03,0.895-1.055,0.911-1.766c0.039-1.816,0.162-3.652-0.017-5.455
		c-0.303-3.068-0.065-5.563,3.971-5.365c0.054,0,0.127-0.439,0.338-1.197C86.703,177.471,84.872,177.362,83.02,177.424z"/>
	<path fill="#DB1634" d="M168.099,186.899c-0.498-0.191-0.995,0.074-1.205,0.658c-0.907,2.527-3.039,2.824-5.059,2.17
		c-2.355-0.768-1.659-3.182-1.812-5.008c-0.086-1.016-0.067-2.117,0.232-3.074c0.305-0.979,0.255-2.578,1.92-2.383
		c1.389,0.162,3.06-0.912,4.17,1.008c0.273,0.473,0.007,2.707,1.737,1.324c1.367-1.092-0.063-1.772-0.672-2.436
		c-0.937-1.023-1.811-1.879-3.563-1.791c-2.609,0.129-4.561,0.957-5.407,3.41c-1.358,3.941-0.015,8.061,3.054,10.109
		c1.417,0.027,2.833,0.057,4.25,0.084c-0.004,0.002-0.008,0.004-0.012,0.006c0.004-0.001,0.009-0.002,0.014-0.003
		c1.503-0.152,2.19-1.248,2.725-2.445C168.722,187.963,168.898,187.202,168.099,186.899z"/>
	<path fill="#DB1634" d="M390.758,183.909c0,1.811-0.027,3.625,0.023,5.438c0.018,0.836-0.205,1.944,1.34,1.853
		c0.84-1.832,0.231-3.794,0.41-5.688c0.194-2.041-0.855-4.579,0.495-5.977c0.916-0.953,3.396-0.375,5.164-0.547
		c0.302-0.031,0.565-0.385,1.345-0.951C391.231,176.2,390.758,176.545,390.758,183.909z"/>
	<path fill="#DB1634" d="M272.799,174.515c-1.967,0.375-3.391,0.644-5.059,0.961C269.825,177.417,271.192,176.853,272.799,174.515z"
		/>
	<path fill="#DB1634" d="M161.494,190.888c1.393,1.018,2.808,0.935,4.238,0.09C164.31,191.336,162.894,191.517,161.494,190.888z"/>
	<path fill="#DB1634" d="M83.162,177.401h-5.413v0.877c1.81-0.592,3.55-0.797,5.271-0.854L83.162,177.401z"/>
	<path fill="#DB1634" d="M7.684,179.03h1.693v-1.07C8.829,178.685,8.254,178.947,7.684,179.03z"/>
	<path fill="#DB1634" d="M9.442,177.061H3.396l0.068,0.01c1.303-0.04,3.182,0.316,5.913,0.889L9.442,177.061z"/>
	<path fill="#DB1634" d="M321.668,179.124v-1.111c-0.938,0.775-1.816,1.039-2.646,1.111H321.668z"/>
	<path fill="#DB1634" d="M321.668,177.068h-6.164l0.029,0.005c1.367-0.015,3.325,0.355,6.135,0.938V177.068z"/>
</g>
</svg>
